# xmcd
#
# Track frame offsets:
#	150
#	11373
#	22071
#	32694
#	44067
#	55515
#	68163
#	80061
#	91434
#	102507
#	113280
#	124728
#	135951
#	146124
#	157497
#	168120
#	178443
#	190641
#	202239
#	211212
#	221535
#	233508
#	246081
#	257979
#	270552
#	281400
#	291048
#	302346
#	314394
#	325392
#
# Disc length: 4481 seconds
#
# Revision: 1
# Processed by: cddbd v1.5.2PL0 Copyright (c) Steve Scherf et al.
# Submitted via: audiograbber 1.83.01
#
DISCID=b8117f1e
DTITLE=Faron Young - The Classic Years 1952-62 Disc 1
DYEAR=1900
DGENRE=
TTITLE0=They Made Me Fall In Love With You
TTITLE1=If You Ain't Lovin' (You Ain't Livin')
TTITLE2=I've Got Five Dollars And It's Saturday
TTITLE3=A Place For Girls Like You
TTITLE4=I Can't Tell My Heart
TTITLE5=In The Chapel In The Moonlight
TTITLE6=If That's The Fashion
TTITLE7=Forgive Me, Dear
TTITLE8=Just Married
TTITLE9=Baby My Heart
TTITLE10=What's The Use To Love You
TTITLE11=That's What I'd Do For You
TTITLE12=I'm Gonna Tell Santa Claus On You
TTITLE13=You're The Angel On My Christmas Tree
TTITLE14=I Hardly Knew It Was You
TTITLE15=That's What It's Like To Be Lonesome
TTITLE16=You're Right (But I Wish You Were Wrong)
TTITLE17=Down Lovers' Lane Alone
TTITLE18=I'm So In Love With You
TTITLE19=Just Married
TTITLE20=Goin' Steady
TTITLE21=Just Out Of Reach
TTITLE22=I Can't Wait (For The Sun To Go Down)
TTITLE23=Have I Waited Too Long
TTITLE24=Tattle Tale Tears
TTITLE25=What Can I Do With My Sorrow
TTITLE26=The Good Lord Must Have Sent You
TTITLE27=I Knew You When
TTITLE28=Saving My Tears For Tomorrow
TTITLE29=Foolish Pride
EXTD=
EXTT0=
EXTT1=
EXTT2=
EXTT3=
EXTT4=
EXTT5=
EXTT6=
EXTT7=
EXTT8=
EXTT9=
EXTT10=
EXTT11=
EXTT12=
EXTT13=
EXTT14=
EXTT15=
EXTT16=
EXTT17=
EXTT18=
EXTT19=
EXTT20=
EXTT21=
EXTT22=
EXTT23=
EXTT24=
EXTT25=
EXTT26=
EXTT27=
EXTT28=
EXTT29=
PLAYORDER=
